<?xml version="1.0" encoding="UTF-8"?>
<svg id="Layer_1" data-name="Layer 1" xmlns="http://www.w3.org/2000/svg" viewBox="0 0 361.29 157.86">
  <defs>
    <style>
      .cls-1 {
        fill: #d9f9f3;
      }
    </style>
  </defs>
  <rect class="cls-1" x=".79" y="7.45" width="359.7" height="142.97" rx="6.56" ry="6.56"/>
  <g>
    <path d="M40.71,37.99v73.13h-2.08V37.99h2.08Z"/>
    <path d="M73.47,74.14c3.16-2.01,6.68-3.06,10.57-3.13l-.1,1.87c-3.06.14-5.87.87-8.44,2.19-2.57,1.32-4.62,3.14-6.15,5.47-1.53,2.33-2.29,4.95-2.29,7.86v22.71h-2.08v-39.38h1.56l.31,10.63c1.25-3.47,3.45-6.21,6.61-8.23Z"/>
    <path d="M122.23,108.67c2.19-.87,4.11-2.1,5.78-3.7l1.35,1.46c-1.94,1.67-4.11,2.97-6.51,3.91-2.4.94-4.91,1.41-7.55,1.41-3.82,0-7.29-.9-10.42-2.71-3.13-1.8-5.59-4.27-7.4-7.4-1.81-3.13-2.71-6.56-2.71-10.31s.92-7.19,2.76-10.31c1.84-3.13,4.32-5.61,7.45-7.45,3.12-1.84,6.56-2.76,10.31-2.76,4.17,0,7.79,1.22,10.89,3.65,3.09,2.43,5.43,5.66,7.03,9.69l-35,14.17c1.39,3.4,3.58,6.2,6.56,8.39,2.99,2.19,6.49,3.28,10.52,3.28,2.43,0,4.74-.43,6.93-1.3ZM105.98,75.18c-2.81,1.67-5.04,3.92-6.67,6.77-1.63,2.85-2.45,5.97-2.45,9.38,0,1.94.24,3.68.73,5.21l33.02-13.34c-1.6-3.12-3.73-5.66-6.41-7.6-2.67-1.94-5.68-2.92-9.01-2.92s-6.41.83-9.22,2.5Z"/>
    <path d="M182.7,42.89c3.82,3.27,5.73,8.13,5.73,14.58,0,3.68-.82,7.08-2.45,10.21-1.63,3.13-4.13,5.64-7.5,7.55-3.37,1.91-7.55,2.86-12.55,2.86h-11.56v33.02h-2.08V37.99h15.21c6.32,0,11.39,1.63,15.21,4.9ZM178.01,73.15c3.06-1.98,5.22-4.41,6.51-7.29,1.28-2.88,1.93-5.75,1.93-8.59,0-5.49-1.74-9.74-5.21-12.76-3.47-3.02-8.09-4.53-13.85-4.53h-13.02v36.15h11.56c5,0,9.03-.99,12.08-2.97Z"/>
    <path d="M237.6,71.74v39.38h-1.98v-11.25c-1.46,3.47-3.91,6.32-7.34,8.54-3.44,2.22-7.24,3.33-11.41,3.33-3.68,0-7.08-.9-10.21-2.71-3.12-1.8-5.59-4.25-7.4-7.34-1.81-3.09-2.71-6.51-2.71-10.26,0-4.24.92-7.9,2.76-10.99,1.84-3.09,4.32-5.45,7.45-7.08,3.12-1.63,6.6-2.45,10.42-2.45,4.03,0,7.71,1.13,11.04,3.39,3.33,2.26,5.8,5.19,7.4,8.8l.42-11.36h1.56ZM226.4,107.68c2.81-1.53,5.05-3.65,6.72-6.35s2.5-5.73,2.5-9.06v-4.27c-.83-4.31-3-7.93-6.51-10.89-3.51-2.95-7.52-4.43-12.03-4.43-3.4,0-6.51.77-9.32,2.29-2.81,1.53-5.04,3.72-6.67,6.56-1.63,2.85-2.45,6.11-2.45,9.79,0,3.4.83,6.53,2.5,9.38,1.67,2.85,3.91,5.1,6.72,6.77,2.81,1.67,5.89,2.5,9.22,2.5s6.51-.77,9.32-2.29Z"/>
    <path d="M265.41,54.56v18.02h13.12v1.77h-13.12v36.77h-2.09v-36.77h-9.17v-1.77h9.17v-18.02h2.09Z"/>
    <path d="M320.67,74.24c2.19,2.15,3.35,4.97,3.49,8.44v28.44h-2.08v-28.23c-.14-2.92-1.09-5.3-2.86-7.14-1.77-1.84-4.25-2.83-7.45-2.97-2.85,0-5.56.68-8.13,2.03-2.57,1.35-4.64,3.23-6.2,5.63-1.56,2.39-2.34,5.02-2.34,7.86v22.81h-2.09V32.78h1.98v48.44c1.32-2.99,3.52-5.43,6.62-7.34,3.09-1.91,6.54-2.86,10.37-2.86,3.61,0,6.51,1.08,8.7,3.23Z"/>
  </g>
  <g>
    <g>
      <path d="M68.78,151.21H7.36c-4.06,0-7.36-3.3-7.36-7.36V14.01c0-4.06,3.3-7.36,7.36-7.36h224.16c.44,0,.79.35.79.79s-.35.79-.79.79H7.36c-3.18,0-5.77,2.59-5.77,5.77v129.84c0,3.18,2.59,5.77,5.77,5.77h61.43c.44,0,.79.35.79.79s-.35.79-.79.79Z"/>
      <polygon points="230.87 8.23 234.72 14.89 236.52 14.89 232.67 8.23 234.48 8.23 238.32 14.89 240.13 14.89 236.28 8.23 238.08 8.23 241.93 14.89 243.73 14.89 239.88 8.23 241.73 8.23 241.73 6.66 239.88 6.66 243.73 0 241.93 0 238.08 6.66 236.28 6.66 240.13 0 238.32 0 234.48 6.66 232.67 6.66 236.52 0 234.72 0 230.87 6.66 230.87 8.23"/>
      <polygon points="68.14 149.63 71.98 142.97 73.79 142.97 69.94 149.63 71.74 149.63 75.59 142.97 77.39 142.97 73.55 149.63 75.35 149.63 79.19 142.97 81 142.97 77.15 149.63 78.99 149.63 78.99 151.2 77.15 151.2 81 157.86 79.19 157.86 75.35 151.2 73.55 151.2 77.39 157.86 75.59 157.86 71.74 151.2 69.94 151.2 73.79 157.86 71.98 157.86 68.14 151.2 68.14 149.63"/>
    </g>
    <g>
      <path d="M353.93,151.21h-224.16c-.44,0-.79-.35-.79-.79s.35-.79.79-.79h224.16c3.18,0,5.77-2.59,5.77-5.77V14.01c0-3.18-2.59-5.77-5.77-5.77h-61.42c-.44,0-.79-.35-.79-.79s.35-.79.79-.79h61.42c4.06,0,7.36,3.3,7.36,7.36v129.84c0,4.06-3.3,7.36-7.36,7.36Z"/>
      <polygon points="130.41 149.63 126.57 142.97 124.77 142.97 128.61 149.63 126.81 149.63 122.97 142.97 121.16 142.97 125.01 149.63 123.21 149.63 119.36 142.97 117.56 142.97 121.4 149.63 119.56 149.63 119.56 151.2 121.4 151.2 117.56 157.86 119.36 157.86 123.21 151.2 125.01 151.2 121.16 157.86 122.97 157.86 126.81 151.2 128.61 151.2 124.77 157.86 126.57 157.86 130.41 151.2 130.41 149.63"/>
      <polygon points="293.15 8.23 289.3 14.89 287.5 14.89 291.35 8.23 289.54 8.23 285.7 14.89 283.89 14.89 287.74 8.23 285.94 8.23 282.09 14.89 280.29 14.89 284.14 8.23 282.29 8.23 282.29 6.66 284.14 6.66 280.29 0 282.09 0 285.94 6.66 287.74 6.66 283.89 0 285.7 0 289.54 6.66 291.35 6.66 287.5 0 289.3 0 293.15 6.66 293.15 8.23"/>
    </g>
  </g>
</svg>