<?xml version="1.0" encoding="UTF-8"?>
<svg id="Layer_1" xmlns="http://www.w3.org/2000/svg" version="1.1" viewBox="0 0 361.3 157.9">
  <!-- Generator: Adobe Illustrator 29.3.1, SVG Export Plug-In . SVG Version: 2.1.0 Build 151)  -->
  <defs>
    <style>
      .st0 {
        fill: #d9f9f3;
      }

      .st1 {
        fill: #231f20;
      }
    </style>
  </defs>
  <g>
    <path class="st0" d="M142,76.1c-20.1,0-36.5-16.4-36.5-36.5S121.9,3.2,142,3.2s36.5,16.4,36.5,36.5v36.5h-36.5Z"/>
    <path class="st1" d="M142,3.6c19.9,0,36.1,16.2,36.1,36.1v36.1h-36.1c-19.9,0-36.1-16.2-36.1-36.1S122.1,3.6,142,3.6M142,2.8h0c-20.3,0-36.8,16.5-36.8,36.8h0c0,20.3,16.5,36.8,36.8,36.8h36.8v-36.8c0-20.3-16.5-36.8-36.8-36.8h0Z"/>
  </g>
  <g>
    <path class="st0" d="M182.9,76.1v-36.5c0-20.1,16.4-36.5,36.5-36.5s36.5,16.4,36.5,36.5-16.4,36.5-36.5,36.5h-36.5Z"/>
    <path class="st1" d="M219.3,3.6c19.9,0,36.1,16.2,36.1,36.1s-16.2,36.1-36.1,36.1h-36.1v-36.1c0-19.9,16.2-36.1,36.1-36.1M219.3,2.8h0c-20.3,0-36.8,16.5-36.8,36.8v36.8h36.8c20.3,0,36.8-16.5,36.8-36.8h0c0-20.3-16.5-36.8-36.8-36.8h0Z"/>
  </g>
  <g>
    <path class="st0" d="M219.3,153c-20.1,0-36.5-16.4-36.5-36.5v-36.5h36.5c20.1,0,36.5,16.4,36.5,36.5s-16.4,36.5-36.5,36.5Z"/>
    <path class="st1" d="M219.3,80.4c19.9,0,36.1,16.2,36.1,36.1s-16.2,36.1-36.1,36.1-36.1-16.2-36.1-36.1v-36.1h36.1M219.3,79.7h-36.8v36.8c0,20.3,16.5,36.8,36.8,36.8h0c20.3,0,36.8-16.5,36.8-36.8h0c0-20.3-16.5-36.8-36.8-36.8h0Z"/>
  </g>
  <g>
    <path class="st0" d="M142,153c-20.1,0-36.5-16.4-36.5-36.5s16.4-36.5,36.5-36.5h36.5v36.5c0,20.1-16.4,36.5-36.5,36.5Z"/>
    <path class="st1" d="M178.1,80.4v36.1c0,19.9-16.2,36.1-36.1,36.1s-36.1-16.2-36.1-36.1,16.2-36.1,36.1-36.1h36.1M178.8,79.7h-36.8c-20.3,0-36.8,16.5-36.8,36.8h0c0,20.3,16.5,36.8,36.8,36.8h0c20.3,0,36.8-16.5,36.8-36.8v-36.8h0Z"/>
  </g>
</svg>